<svg xmlns="http://www.w3.org/2000/svg" viewBox="-17 30 316 316" fill="none">
<path d="M25.3813 34.5101C82.2217 38.1127 141.135 45.8047 198.138 50.0123C218.431 51.5098 245.651 55.3411 265.232 55.859C267.637 63.855 277.118 94.218 277.75 100.446C279.622 118.882 279.204 144.581 279.842 163.542C281.47 211.885 281.429 260.802 283.154 309.098L283.571 329.377L283.95 342.193L260.314 342.487L185.235 343.497C173.245 344.577 154.863 344.174 142.292 344.399L54.0315 345.779C47.6136 321.402 41.7814 294.629 35.9057 269.977L0 119.674C3.62525 108.01 7.06148 96.1618 10.5428 84.4434L11.2777 82.0936C15.8905 66.7155 21.3088 49.9173 25.3813 34.5101Z" fill="white"/>
<path d="M25.3813 34.5101C82.2217 38.1127 141.135 45.8047 198.138 50.0123C218.431 51.5098 245.651 55.3411 265.232 55.859C267.637 63.855 277.118 94.218 277.75 100.446C279.621 118.882 279.204 144.581 279.842 163.542C281.47 211.885 281.429 260.802 283.154 309.098C282.253 302.071 273.214 289.278 269.058 282.64C262.707 286.392 256.31 290.065 249.868 293.657L249.175 293.471C222.832 286.289 196.378 243.243 182.977 219.998C239.234 163.495 187.517 86.0545 124.718 125.757C123.545 91.6459 127.253 48.5804 80.5162 47.2556C49.428 46.3744 32.2448 62.3438 11.2777 82.0936C15.8905 66.7155 21.3088 49.9173 25.3813 34.5101Z" fill="#9E1B1B"/>
<path d="M10.5428 84.4434C19.8541 94.3952 30.1702 105.016 39.0961 115.199C40.2152 150.807 42.716 186.779 44.486 222.382C45.3553 239.877 45.365 264.102 48.4346 280.603C54.9742 315.763 109.556 315.988 128.027 289.23C145.155 313.863 158.484 329.646 185.235 343.497C173.245 344.577 154.863 344.174 142.292 344.399L54.0315 345.779C47.6136 321.402 41.7814 294.629 35.9057 269.977L0 119.674C3.62525 108.01 7.06148 96.1618 10.5428 84.4434Z" fill="#9E1B1B"/>
<path d="M260.314 342.487C267.956 338.86 276.309 333.728 283.571 329.377L283.95 342.193L260.314 342.487Z" fill="#9E1B1B"/>
<path d="M71.2913 68.8221C107.086 66.2854 101.638 88.8111 103.066 116.39L106.187 176.838C118.884 158.55 137.655 132.417 163.48 136.864C170.423 138.022 176.596 141.952 180.581 147.753C186.05 155.597 187.125 166.198 185.113 175.327C180.948 194.225 170.153 204.029 155.2 214.077C171.697 243.039 220.006 330.153 260.476 311.999C262.68 312.421 262.313 312.806 263.92 315.139L263.492 316.667C253.822 325.168 228.965 329.27 216.078 328.683C191.896 327.581 177.019 315.165 161.456 298.341C140.376 272.978 127.46 248.246 112.994 218.999C128.775 205.377 152.034 183.638 148.035 159.855C147.668 158.387 146.579 156.577 145.192 155.961C138.581 153.028 132.631 157.552 128.166 162.467C119.207 172.33 111.75 185.165 108.558 198.182C107.008 204.502 107.972 212.619 108.306 219.128C109.033 233.26 109.796 247.357 110.681 261.476C111.006 266.079 111.803 273.563 109.921 277.541C105.646 289.36 72.2162 290.467 69.8895 278.299C66.6483 261.349 66.4887 236.983 65.6219 219.753L60.526 122.765C60.0555 113.773 60.0225 99.9648 58.8164 91.4187C57.4854 81.9897 43.2929 86.467 40.6567 85.145C42.9215 77.1708 63.6101 70.2165 71.2913 68.8221Z" fill="#060606"/>
</svg>
