<svg width="1518" height="368" viewBox="0 0 1518 368" fill="none" xmlns="http://www.w3.org/2000/svg">
<path d="M907.646 11.0306C909.007 9.95054 911.666 7.70715 913.309 7.64488C929.237 7.03814 945.947 6.75523 961.818 6.52444L1055.16 4.87522L1226.42 1.6058C1254.63 1.06825 1287.85 -0.348887 1315.7 0.0795071C1320.79 23.3845 1327.78 48.258 1327.29 72.0129C1327.05 83.6306 1326.85 95.2475 1326.61 106.866L1324.86 196.601L1323.07 289.441C1322.81 304.329 1323.17 327.684 1321.66 341.652C1320.8 342.792 1319.94 343.971 1319.03 345.061C1318.56 347.031 1319 346.185 1317.62 347.681L920.254 351.378L892.612 24.6562C896.858 21.3055 903.456 14.8675 907.646 11.0306Z" fill="#33546C"/>
<path d="M1173.34 87.4763C1189.54 84.8381 1210.87 92.9025 1222.06 104.457C1239.8 122.77 1242.29 144.405 1242.2 168.644C1245.03 170.24 1248.65 171.903 1251.62 173.365C1252.38 182.527 1252.14 191.592 1253.28 200.728L1243.65 205.957C1243.74 218.483 1244.47 232.043 1244.9 244.637C1247.02 242.804 1249.52 240.877 1251.74 239.089C1261.98 252.434 1275.29 262.423 1264.01 281.305C1259.99 288.111 1253.34 292.962 1245.63 294.722C1238 296.461 1222.72 293.408 1219.98 294.437C1207.43 299.134 1202.53 295.146 1192.64 295.665C1174.94 296.594 1173.26 301.613 1156.26 290.966C1139.77 302.819 1136.86 298.15 1119.65 298.339C1110.03 300.124 1100.5 299.289 1090.99 299.948C1075.8 301.001 1070.31 303.161 1056.46 294.491L1055.68 295.081C1041.5 305.614 1036.2 301.439 1020.78 302.064C1010.36 302.488 1007.1 304.443 995.688 302.79C989.026 299.664 972.163 310.634 955.889 300.262C949.564 296.2 945.109 289.794 943.498 282.45C940.42 268.065 948.364 260.343 955.55 249.076L964.372 255.428L963.172 216.427L953.117 211.212L952.65 183.718L961.697 179.014C961.665 172.238 961.319 165.003 961.109 158.192L951.264 166.074C943.401 156.537 934.128 147.496 936.367 134.281C940.927 107.38 963.792 98.1934 987.793 101.027C1004.16 90.1636 1020.91 89.0793 1035.18 103.868C1065.37 86.4685 1096.2 84.2557 1123.63 109.122C1137.61 94.7464 1153.82 89.1688 1173.34 87.4763Z" fill="#060606"/>
<path d="M1174.07 102.766C1184.44 101.639 1194.9 103.985 1203.79 109.437C1219.02 118.613 1225.01 135.384 1226.4 152.372C1227.03 160.005 1226.37 168.527 1228.23 175.891L1228.32 176.264C1233.58 182.181 1238.52 184.154 1245.52 187.593C1238.64 191.409 1228.94 195.717 1228.82 205.005C1228.59 221.375 1227.97 241.83 1231.51 257.83C1233.01 264.614 1244.08 262.571 1249.32 262.126C1260.99 267.947 1246.28 289.055 1221.04 276.371C1209.56 282.82 1202.76 283.031 1190.78 277.753C1182.84 282.944 1168.8 285.733 1163.2 275.367C1161.74 272.654 1161.08 268.019 1162.07 265.059C1164.02 264 1178.63 267.681 1178.98 259.311C1180.19 230.803 1177.23 202.021 1176.8 173.369C1176.68 165.377 1175.23 152.818 1171.44 145.372C1156.04 123.619 1131.35 136.794 1128.47 159.641C1125.85 180.463 1129.05 198.886 1129.12 219.401C1129.17 232.709 1129.44 243.604 1130.09 256.699C1131.62 273.44 1143.99 260.649 1148.89 267.62C1151.95 286.117 1131.8 285.586 1119.77 280.293C1110.18 286.234 1101.42 286.382 1091.53 281.231C1086.61 283.775 1080 286.992 1074.26 286.31C1069.38 285.732 1059.52 276.726 1061.24 271.279C1063.81 263.159 1070.04 271.336 1076.92 267.085C1078.91 264.766 1079.74 262.49 1079.73 259.497C1079.64 240.27 1078.52 220.037 1077.76 200.904C1077.54 189.834 1076.8 178.267 1076.45 166.076C1075.7 140.022 1053.06 126.97 1034.59 147.849C1025.53 158.09 1027.32 179.885 1028.08 193.798C1029.27 215.138 1029.21 239.184 1030.33 260.737C1030.63 266.728 1036.68 271.891 1042.49 269.567C1045.57 268.336 1046.24 267.44 1048.9 269.685C1050.02 273.047 1049.49 278.039 1048.06 280.889C1042.93 292.897 1024.68 283.839 1019.41 284.953C1005.73 287.847 1007.23 292.502 991.209 284.367C982.057 289.476 973.283 291.012 963.341 286.707C956.509 283.75 956.565 278.295 959.595 272.437C973.235 273.216 980.679 273.103 979.873 256.544C979.148 241.484 979.946 225.198 977.142 210.425C976.167 205.303 963.704 199.478 959.579 197.366C974.443 190.271 978.173 186.1 977.013 169.021C976.506 161.422 977.247 150.978 972.904 144.35C969.319 138.882 958.531 143.824 953.214 142.924C946.462 133.632 956.493 122.765 964.598 118.742C973.871 114.139 983.015 115.1 992.53 118.087C1002.46 107.737 1018.39 100.725 1024.81 118.902C1026.66 124.12 1026.21 130.74 1026.23 136.315C1041.43 112.05 1068.38 99.5549 1096.49 109.218C1110.08 113.894 1117.05 124.552 1122.73 136.836C1134.28 114.457 1149.15 105.18 1174.07 102.766Z" fill="white"/>
<path d="M990.605 147.048C1003.51 155.115 1005.16 236.069 995.028 245.093L993.9 244.207C993.376 231.904 993.296 218.101 991.144 206.028C990.282 201.214 986.407 199.706 982.073 196.963L982.113 196.105C993.739 189.812 991.225 178.357 991.128 166.824C991.064 160.251 990.734 153.632 990.605 147.048Z" fill="#060606"/>
<path d="M1186.07 139.957C1204.28 147.773 1204.11 219.824 1197.97 235.28C1196.15 237.125 1195.94 238.035 1193.84 238.215C1190.13 206.93 1194.81 172.093 1186.07 139.957Z" fill="#060606"/>
<path d="M1086.45 143.524C1104.34 152.822 1104.47 222.704 1098.23 238.64C1096.61 240.349 1096.05 241.561 1094.09 241.895C1093.06 234.93 1093.17 224.377 1092.84 217.064C1091.66 191.126 1092.54 169.002 1086.45 143.524Z" fill="#060606"/>
<path d="M1051.26 153.053C1054.65 153.139 1055.32 152.995 1057.81 154.739C1063.18 164.607 1063.56 229.644 1064.03 245.675C1060.56 248.366 1058.07 250.841 1054.95 253.879C1054.4 253.647 1046.69 247.869 1045.47 247.004C1043.24 221.919 1043.62 193.628 1043.07 168.26C1042.93 162.182 1046.68 156.855 1051.26 153.053Z" fill="#33546C"/>
<path d="M1150.62 149.8C1153.44 149.929 1153.88 149.925 1156.42 151.116C1163.92 158.949 1163.33 227.699 1163.86 242.543C1160.99 244.755 1158.22 247.315 1155.51 249.739C1153.66 250.322 1147.62 244.916 1144.87 243.457C1144.63 221.066 1143.34 198.628 1142.83 176.248C1142.57 165.266 1142.83 157.891 1150.62 149.8Z" fill="#33546C"/>
<path d="M25.3813 34.5101C82.2217 38.1127 141.135 45.8047 198.138 50.0123C218.431 51.5098 245.651 55.3411 265.232 55.859C267.637 63.855 277.118 94.218 277.75 100.446C279.622 118.882 279.204 144.581 279.842 163.542C281.47 211.885 281.429 260.802 283.154 309.098L283.571 329.377L283.95 342.193L260.314 342.487L185.235 343.497C173.245 344.577 154.863 344.174 142.292 344.399L54.0315 345.779C47.6136 321.402 41.7814 294.629 35.9057 269.977L0 119.674C3.62525 108.01 7.06148 96.1618 10.5428 84.4434L11.2777 82.0936C15.8905 66.7155 21.3088 49.9173 25.3813 34.5101Z" fill="white"/>
<path d="M25.3813 34.5101C82.2217 38.1127 141.135 45.8047 198.138 50.0123C218.431 51.5098 245.651 55.3411 265.232 55.859C267.637 63.855 277.118 94.218 277.75 100.446C279.621 118.882 279.204 144.581 279.842 163.542C281.47 211.885 281.429 260.802 283.154 309.098C282.253 302.071 273.214 289.278 269.058 282.64C262.707 286.392 256.31 290.065 249.868 293.657L249.175 293.471C222.832 286.289 196.378 243.243 182.977 219.998C239.234 163.495 187.517 86.0545 124.718 125.757C123.545 91.6459 127.253 48.5804 80.5162 47.2556C49.428 46.3744 32.2448 62.3438 11.2777 82.0936C15.8905 66.7155 21.3088 49.9173 25.3813 34.5101Z" fill="#9E1B1B"/>
<path d="M10.5428 84.4434C19.8541 94.3952 30.1702 105.016 39.0961 115.199C40.2152 150.807 42.716 186.779 44.486 222.382C45.3553 239.877 45.365 264.102 48.4346 280.603C54.9742 315.763 109.556 315.988 128.027 289.23C145.155 313.863 158.484 329.646 185.235 343.497C173.245 344.577 154.863 344.174 142.292 344.399L54.0315 345.779C47.6136 321.402 41.7814 294.629 35.9057 269.977L0 119.674C3.62525 108.01 7.06148 96.1618 10.5428 84.4434Z" fill="#9E1B1B"/>
<path d="M260.314 342.487C267.956 338.86 276.309 333.728 283.571 329.377L283.95 342.193L260.314 342.487Z" fill="#9E1B1B"/>
<path d="M71.2913 68.8221C107.086 66.2854 101.638 88.8111 103.066 116.39L106.187 176.838C118.884 158.55 137.655 132.417 163.48 136.864C170.423 138.022 176.596 141.952 180.581 147.753C186.05 155.597 187.125 166.198 185.113 175.327C180.948 194.225 170.153 204.029 155.2 214.077C171.697 243.039 220.006 330.153 260.476 311.999C262.68 312.421 262.313 312.806 263.92 315.139L263.492 316.667C253.822 325.168 228.965 329.27 216.078 328.683C191.896 327.581 177.019 315.165 161.456 298.341C140.376 272.978 127.46 248.246 112.994 218.999C128.775 205.377 152.034 183.638 148.035 159.855C147.668 158.387 146.579 156.577 145.192 155.961C138.581 153.028 132.631 157.552 128.166 162.467C119.207 172.33 111.75 185.165 108.558 198.182C107.008 204.502 107.972 212.619 108.306 219.128C109.033 233.26 109.796 247.357 110.681 261.476C111.006 266.079 111.803 273.563 109.921 277.541C105.646 289.36 72.2162 290.467 69.8895 278.299C66.6483 261.349 66.4887 236.983 65.6219 219.753L60.526 122.765C60.0555 113.773 60.0225 99.9648 58.8164 91.4187C57.4854 81.9897 43.2929 86.467 40.6567 85.145C42.9215 77.1708 63.6101 70.2165 71.2913 68.8221Z" fill="#060606"/>
<path d="M361.052 29.8142C370.049 29.8259 385.081 31.4874 394.378 32.2331L457.36 37.2852L520.724 42.255C531.14 43.0711 546.419 43.8323 556.44 45.3951C560.084 63.0503 566.552 83.1674 568.875 100.889C569.573 106.213 566.511 126.096 565.672 132.266L559.568 177.707C551.238 240.264 541.85 305.23 534.533 367.767C527.657 366.827 519.72 366.316 512.729 365.714C446.169 361.148 378.512 354.682 311.817 349.59C301.967 322.072 304.68 319.234 310.122 291.685L320.452 239.187C333.883 170.493 349.091 98.3828 361.052 29.8142Z" fill="white"/>
<path d="M401.897 80.7258C409.04 85.6638 412.276 90.9209 416.406 98.1483C428.777 90.7872 436.513 85.895 450.442 82.7711C466.024 88.277 477.71 101.213 489.06 112.933C499.329 123.538 502.44 131.187 502.148 145.733C501.722 167.014 491.152 174.449 476.517 187.96C481.298 192.875 495.614 208.74 497.083 214.319C503.122 237.236 501.904 279.476 501.631 302.661L456.09 300.539C456.835 286.544 456.234 271.306 455.773 257.305C455.72 240.098 455.914 225.537 446.247 211.094C438.901 210.129 426.646 209.873 418.917 209.47C418.085 238.557 415.802 269.007 414.485 298.248C400.521 297.535 386.561 296.737 372.606 295.853L377.562 201.21C378.675 179.957 381.425 152.398 378.447 131.476C377.266 123.185 369.026 111.373 364.283 104.384C376.88 96.592 389.419 88.7056 401.897 80.7258Z" fill="#060606"/>
<path d="M438.05 123.691C451.058 121.951 456.81 140.272 455.188 150.592C453.524 161.177 446.018 167.282 437.777 173.181C432.75 175.428 426.596 174.382 420.99 174.03C421.739 157.982 422.72 142.229 422.574 126.153C427.944 125.114 432.632 124.413 438.05 123.691Z" fill="white"/>
<path d="M757.454 30.5332C774.904 28.5873 799.115 24.5538 815.864 23.7551L844.739 161.458C848.179 177.875 851.249 194.371 855.181 211.025C861.747 238.904 859.676 268.125 861.36 296.621C861.618 301.033 862.665 319.84 861.288 322.312L859.024 323.071C858.29 324.3 857.638 325.02 856.744 326.101C850.613 327.096 838.818 327.439 832.332 327.824L786.893 330.561C741.605 333.29 695.449 336.54 650.186 338.662L631.225 217.01C628.421 199.122 623.711 177.27 622.48 159.41C621.921 132.308 624.124 105.115 624.483 77.9813C624.591 69.8299 622.955 53.4706 628.85 48.2128L629.349 46.5113C634.314 44.8789 661.281 42.1526 667.783 41.407C678.302 40.1042 689.304 38.5703 699.826 37.6693C704.608 36.5801 725.955 34.3113 731.241 33.8971C739.962 32.6402 748.702 31.5188 757.454 30.5332Z" fill="#9E1B1B"/>
<path d="M731.241 33.897C739.962 32.6402 748.702 31.5188 757.454 30.5332C760.072 33.8682 760.555 34.4487 763.971 36.9231C764.785 49.0422 766.324 62.256 767.782 74.3772C758.114 79.9089 759.83 81.8713 753.474 89.1873C773.575 109.533 764.165 135.74 767.814 161.458C768.072 163.232 771.81 163.095 772.213 166.065C773.567 176.012 773.849 193.964 774.187 203.142C772.229 204.434 770.046 205.228 769.7 207.701C768.233 218.141 768.717 221.815 777.055 228.88C799.058 247.522 798.687 281.931 767.323 291.044C763.697 292.079 759.975 292.734 756.213 292.997C752.958 293.205 744.457 291.651 742.937 291.982C732.258 294.327 721.337 292.773 710.807 293.339C699.081 293.971 687.03 297.124 676.041 290.347C646.433 272.085 661.132 242.563 679.018 223.258L678.682 209.394L673.297 206.375C673.11 193.182 672.844 179.99 672.5 166.799C668.715 162.136 664.9 157.417 661.223 152.69C642.188 128.216 658.905 101.628 683.23 90.5503C678.871 85.315 677.386 82.2821 671.639 78.6063C670.544 67.8369 669.427 51.8305 667.783 41.407C678.302 40.1042 689.304 38.5703 699.826 37.6692C704.608 36.5801 725.955 34.3113 731.241 33.8971Z" fill="white"/>
<path d="M699.826 37.6693C704.608 36.5802 725.955 34.3113 731.241 33.8971C742.564 42.2224 740.2 48.6428 755.689 56.4923C754.021 57.4686 748.9 60.4983 747.904 61.6285C737.512 73.4186 730.401 87.5924 711.543 82.5528C695.638 78.3035 697.026 66.743 679.917 58.8799C694.59 49.3083 691.225 45.9809 699.826 37.6693Z" fill="#060606"/>
<path d="M709.793 42.5028C710.591 42.6141 711.763 42.9375 712.582 43.1329C712.829 46.0644 708.7 52.5305 708.804 56.5269C708.949 62.1408 712.389 65.8601 713.157 71.271C710.981 72.1885 710.381 71.4385 707.594 70.6193C704.788 68.0439 699.611 61.6647 696.35 58.3128C702.055 52.5337 701.321 48.4196 709.793 42.5028Z" fill="white"/>
<path d="M727.699 103.289C735.515 102.87 742.666 105.488 744.097 114.181C747.147 132.703 743.618 152.947 747.319 171.381C748.627 177.893 758.485 181.705 763.778 184.351C745.945 194.061 747.107 196.765 747.906 217.056C748.311 227.351 748.76 238.321 749.142 248.672C758.13 259.044 757.728 254.047 769.402 253.931L770.441 255.291C773.406 274.071 752.966 273.229 740.701 267.774C729.761 273.791 723.06 273.904 711.838 268.698C707.258 271.075 705.759 271.737 700.804 273.12C690.878 273.805 678.274 271.86 680.753 258.447C687.151 252.087 690.353 264.585 701.545 250.451C701.341 235.939 701.201 213.472 698.877 199.364C698.031 194.233 687.162 189.377 682.454 187.122C684.703 185.811 693.733 180.864 695.28 178.548C700.565 170.639 700.263 143.226 693.514 135.986C691.702 134.041 679.857 135.61 676.309 135.952C672.709 128.102 674.661 122.217 681.342 116.992C691.879 108.751 702.129 109.334 714.131 112.859C718.787 107.104 720.719 105.437 727.699 103.289Z" fill="#060606"/>
<path d="M711.466 139.107C723.389 147.733 725.707 224.067 715.242 231.682L714.426 230.967C714.177 219.828 713.994 201.235 710.703 190.857C707.736 189.121 706.282 188.21 703.591 186.093C712.129 177.777 712.56 177.501 712.128 165.129C711.836 156.777 711.328 147.45 711.466 139.107Z" fill="white"/>
<path d="M1367.08 34.8483L1368.47 32.1599C1375.27 30.5881 1406.88 29.0217 1415.56 28.4276C1449.41 26.11 1483.8 22.9161 1517.62 20.8571L1514.96 212.125L1514.11 274.327C1513.96 285.858 1514.33 327.294 1507.32 335.584L1505.33 335.587C1504.67 336.606 1503.9 338.024 1503.27 339.106C1498.87 339.051 1468.38 332.214 1462.52 330.978L1361.63 309.692C1359.96 286.985 1356.5 264.507 1357.84 241.704C1358.37 232.851 1358.43 223.617 1358.72 214.725L1361.44 131.669C1362.43 101.338 1363.27 70.6998 1364.55 40.3649C1364.7 36.6854 1364.89 36.7014 1367.08 34.8483Z" fill="#33546C"/>
<path d="M1419.3 114.511C1431.94 114.474 1445.39 114.995 1458.08 115.283C1458.08 147.765 1456.75 180.309 1456.46 212.795C1456.29 231.258 1456.45 241.607 1470.43 255.137L1458 263.421L1437.68 277.273C1436.59 276.269 1435.52 275.238 1434.48 274.183C1411.89 251.177 1417.44 220.194 1417.98 190.434L1419.3 114.511Z" fill="white"/>
<path d="M1439.41 53.0413C1446.68 54.5348 1459.98 67.1739 1464.28 73.1052C1469.57 80.41 1445.55 95.9443 1440.55 98.593C1433.84 98.1121 1420.88 84.528 1416.39 79.7503C1409.07 71.9549 1433.86 56.6598 1439.41 53.0413Z" fill="white"/>
</svg>
